# xmcd
#
# Track frame offsets: 
#        150
#        14332
#        31217
#        47295
#        71135
#        89297
#        106512
#        127287
#        149707
#        170312
#
# Disc length: 2526 seconds
#
# Revision: 0
# Processed by: cddbd v1.5.2PL0 Copyright (c) Steve Scherf et al.
# Submitted via: ExactAudioCopy v1.0b3
#
DISCID=8309dc0a
DTITLE=Phuong Hong Que - Chieu Cuoi Tuan
DYEAR=1992
DGENRE=
TTITLE0=Bai ngoi ca que huong
TTITLE1=Thanh pho mua bay
TTITLE2=Duong ve khuya
TTITLE3=Chuyen di ve sang
TTITLE4=Suong lanh chieu dong
TTITLE5=Biet khuc
TTITLE6=Thang tam mua bay
TTITLE7=Suong phu duong khuya
TTITLE8=Chieu cuoi tuan
TTITLE9=Den khuya
EXTD=
EXTT0=
EXTT1=
EXTT2=
EXTT3=
EXTT4=
EXTT5=
EXTT6=
EXTT7=
EXTT8=
EXTT9=
PLAYORDER=
